<?xml version="1.0" encoding="utf-8"?>
<!-- Generator: Adobe Illustrator 18.0.0, SVG Export Plug-In . SVG Version: 6.00 Build 0)  -->
<!DOCTYPE svg PUBLIC "-//W3C//DTD SVG 1.1//EN" "http://www.w3.org/Graphics/SVG/1.1/DTD/svg11.dtd">
<svg version="1.1" id="Layer_1" xmlns="http://www.w3.org/2000/svg" xmlns:xlink="http://www.w3.org/1999/xlink" x="0px" y="0px"
	 viewBox="0 0 32 32" enable-background="new 0 0 32 32" xml:space="preserve">
<path fill="#2C6AA5" d="M0,30c0,1.1,0.9,2,2,2h28c1.1,0,2-0.9,2-2V12H0V30z M22,14h8v4h-8V14z M22,20h8v4h-8V20z M22,26h8v4h-8V26z
	 M12,14h8v4h-8V14z M12,20h8v4h-8V20z M12,26h8v4h-8V26z M2,14h8v4H2V14z M2,20h8v4H2V20z M2,26h8v4H2V26z M30,4h-4V1.1
	C26,0.5,25.6,0,25,0c-0.6,0-1,0.5-1,1.1V4H8V1.1C8,0.5,7.6,0,7,0C6.4,0,6,0.5,6,1.1V4H2C0.9,4,0,4.9,0,6v4h32V6C32,4.9,31.1,4,30,4z
	 M7,9C5.9,9,5,8.1,5,7c0-0.7,0.4-1.4,1-1.7V7c0,0.6,0.4,1,1,1c0.6,0,1-0.4,1-1V5.3c0.6,0.3,1,1,1,1.7C9,8.1,8.1,9,7,9z M25,9
	c-1.1,0-2-0.9-2-2c0-0.7,0.4-1.4,1-1.7V7c0,0.6,0.4,1,1,1c0.6,0,1-0.4,1-1V5.3c0.6,0.3,1,1,1,1.7C27,8.1,26.1,9,25,9z"/>
</svg>
