<?xml version="1.0" encoding="utf-8"?>
<!-- Generator: Adobe Illustrator 18.0.0, SVG Export Plug-In . SVG Version: 6.00 Build 0)  -->
<!DOCTYPE svg PUBLIC "-//W3C//DTD SVG 1.1//EN" "http://www.w3.org/Graphics/SVG/1.1/DTD/svg11.dtd">
<svg version="1.1" id="Layer_1" xmlns="http://www.w3.org/2000/svg" xmlns:xlink="http://www.w3.org/1999/xlink" x="0px" y="0px"
	 viewBox="0 0 26 26" enable-background="new 0 0 26 26" xml:space="preserve">
<path fill="#2C6AA5" d="M25.8,20.9L25.8,20.9L17.9,13l7.9-7.9l0,0c0.1-0.1,0.1-0.2,0.2-0.3c0.1-0.3,0-0.6-0.2-0.9L22,0.2
	c-0.2-0.2-0.6-0.3-0.9-0.2c-0.1,0-0.2,0.1-0.3,0.2l0,0L13,8.1L5.1,0.2l0,0C5,0.2,4.9,0.1,4.8,0.1C4.5-0.1,4.2,0,4,0.2L0.2,4
	C0,4.2-0.1,4.5,0.1,4.8c0,0.1,0.1,0.2,0.2,0.3l0,0L8.1,13l-7.9,7.9l0,0c-0.1,0.1-0.1,0.2-0.2,0.3c-0.1,0.3,0,0.6,0.2,0.9L4,25.8
	c0.2,0.2,0.6,0.3,0.9,0.2c0.1,0,0.2-0.1,0.3-0.2l0,0l7.9-7.9l7.9,7.9l0,0c0.1,0.1,0.2,0.1,0.3,0.2c0.3,0.1,0.6,0,0.9-0.2l3.7-3.7
	c0.2-0.2,0.3-0.6,0.2-0.9C25.9,21.1,25.8,21,25.8,20.9z"/>
</svg>
