<?xml version="1.0" encoding="utf-8"?>
<!-- Generator: Adobe Illustrator 18.0.0, SVG Export Plug-In . SVG Version: 6.00 Build 0)  -->
<!DOCTYPE svg PUBLIC "-//W3C//DTD SVG 1.1//EN" "http://www.w3.org/Graphics/SVG/1.1/DTD/svg11.dtd">
<svg version="1.1" id="Layer_1" xmlns="http://www.w3.org/2000/svg" xmlns:xlink="http://www.w3.org/1999/xlink" x="0px" y="0px"
	 viewBox="0 0 32 31.9" enable-background="new 0 0 32 31.9" xml:space="preserve">
<path fill="#414141" d="M6,15.9c0-0.4,0-0.8,0.1-1.1l-5.8-1.9c-0.2,1-0.3,2-0.3,3c0,4.6,1.9,8.7,5.1,11.7l3.6-4.9
	C7,20.8,6,18.5,6,15.9z M26,15.9c0,2.6-1,5-2.6,6.8l3.6,4.9c3.1-2.9,5.1-7.1,5.1-11.7c0-1-0.1-2-0.3-3l-5.8,1.9
	C26,15.1,26,15.5,26,15.9z M18,6.1c2.9,0.6,5.3,2.4,6.7,4.9l5.8-1.9C28.2,4.2,23.5,0.7,18,0V6.1z M7.3,10.9c1.4-2.5,3.8-4.3,6.7-4.9
	V0C8.5,0.7,3.8,4.2,1.5,9.1L7.3,10.9z M20.1,25c-1.3,0.6-2.7,0.9-4.1,0.9s-2.9-0.3-4.1-0.9l-3.6,4.9c2.3,1.3,4.9,2,7.7,2
	s5.4-0.7,7.7-2L20.1,25z"/>
</svg>
