<?xml version="1.0" encoding="utf-8"?>
<!-- Generator: Adobe Illustrator 18.0.0, SVG Export Plug-In . SVG Version: 6.00 Build 0)  -->
<!DOCTYPE svg PUBLIC "-//W3C//DTD SVG 1.1//EN" "http://www.w3.org/Graphics/SVG/1.1/DTD/svg11.dtd">
<svg version="1.1" id="Layer_1" xmlns="http://www.w3.org/2000/svg" xmlns:xlink="http://www.w3.org/1999/xlink" x="0px" y="0px"
	 viewBox="0 0 20.3 21.1" enable-background="new 0 0 20.3 21.1" xml:space="preserve">
<path fill="#545553" d="M18.8,12.6c-1.1-1.9-0.4-4.4,1.5-5.5l-2.1-3.6C17.7,3.8,17,4,16.2,4c-2.2,0-4-1.8-4-4H8.1
	c0,0.7-0.2,1.4-0.5,2C6.5,3.9,4,4.6,2.1,3.5L0,7.1c0.6,0.3,1.1,0.8,1.5,1.5C2.6,10.4,1.9,12.9,0,14l2.1,3.6c0.6-0.3,1.3-0.5,2-0.5
	c2.2,0,4,1.8,4,4h4.1c0-0.7,0.2-1.4,0.5-2c1.1-1.9,3.6-2.6,5.5-1.5l2.1-3.6C19.7,13.7,19.2,13.2,18.8,12.6 M10.2,14.8
	c-2.4,0-4.3-1.9-4.3-4.3c0-2.4,1.9-4.3,4.3-4.3c2.4,0,4.3,1.9,4.3,4.3C14.4,12.9,12.5,14.8,10.2,14.8"/>
</svg>
