<?xml version="1.0" encoding="utf-8"?>
<!-- Generator: Adobe Illustrator 18.0.0, SVG Export Plug-In . SVG Version: 6.00 Build 0)  -->
<!DOCTYPE svg PUBLIC "-//W3C//DTD SVG 1.1//EN" "http://www.w3.org/Graphics/SVG/1.1/DTD/svg11.dtd">
<svg version="1.1" id="Layer_1" xmlns="http://www.w3.org/2000/svg" xmlns:xlink="http://www.w3.org/1999/xlink" x="0px" y="0px"
	 viewBox="0 0 115.7 28.8" enable-background="new 0 0 115.7 28.8" xml:space="preserve">
<g>
	<polyline fill="#FDFDFE" points="0,15.2 4.7,15.2 4.7,25.4 10.1,25.4 10.1,28.8 0,28.8 0,15.2 	"/>
	<rect x="14.6" y="15.2" fill="#FDFDFE" width="4.7" height="13.5"/>
	<path fill="#FDFDFE" d="M29.9,20.8v-3.6h1.4c1.5,0,2.1,0.7,2.1,1.8c0,1-0.6,1.8-2.1,1.8H29.9 M25.2,28.8h9c2.5,0,4.2-1.6,4.2-3.9
		c0-1.7-0.9-2.9-2.9-3.6c1.4-0.6,2.1-1.5,2.1-2.8c0-1.6-1.1-3.3-4.5-3.3h-7.9V28.8z M29.9,26.7v-3.8h1.5c1.5,0,2.3,0.7,2.3,1.8
		c0,1.3-0.8,2-2.4,2H29.9z"/>
	<path fill="#FDFDFE" d="M43.7,28.8h4.7v-5.7h1.3c1.3,0,2,1.3,3,3.7l0.9,2h4.7l-1.6-3.6c-0.7-1.6-1.3-2.5-2.2-3
		c1.4-0.6,2.2-1.7,2.2-3.1c0-2.1-1.6-3.9-5.2-3.9h-7.7V28.8 M48.4,21v-3.6h1.4c1.5,0,2.3,0.6,2.3,1.8c0,1.2-0.9,1.8-2.4,1.8H48.4z"
		/>
	<path fill="#FDFDFE" d="M61.6,28.8h4.7l0.9-2.2h6.1l0.9,2.2h4.7l-6.2-13.5h-5L61.6,28.8 M68.2,24.1l2.1-5.4l2.1,5.4H68.2z"/>
	<path fill="#FDFDFE" d="M83.6,28.8h4.7v-5.7h1.3c1.3,0,2,1.3,3,3.7l0.9,2h4.7l-1.6-3.6c-0.7-1.6-1.3-2.5-2.2-3
		c1.4-0.6,2.2-1.7,2.2-3.1c0-2.1-1.6-3.9-5.2-3.9h-7.7V28.8 M88.3,21v-3.6h1.4c1.5,0,2.3,0.6,2.3,1.8c0,1.2-0.9,1.8-2.4,1.8H88.3z"
		/>
	<polyline fill="#FDFDFE" points="105.4,22.7 100.1,15.2 105.8,15.2 108.3,19.7 110.9,15.2 115.5,15.2 110.1,22.9 110.1,28.8 
		105.4,28.8 105.4,22.7 	"/>
	<path fill="#FDFDFE" d="M76.6,13.5h1.8v-1.8h0.7c1.6,0,2.1-0.9,2.1-1.6c0-0.8-0.5-1.6-2-1.6h-2.6V13.5 M78.3,10.8V9.5h0.4
		c0.6,0,0.8,0.2,0.8,0.7c0,0.4-0.2,0.7-0.8,0.7H78.3z"/>
	<path fill="#FDFDFE" d="M88.8,11.2c0,1.5-0.9,2.4-2.6,2.4c-1.7,0-2.7-0.8-2.7-2.2V8.5h1.8v2.7c0,0.7,0.4,1,0.9,1
		c0.5,0,0.9-0.3,0.9-1.1V8.5h1.7V11.2"/>
	<path fill="#FDFDFE" d="M93.5,10.6V9.3H94c0.6,0,0.8,0.3,0.8,0.7c0,0.4-0.2,0.7-0.8,0.7H93.5 M91.7,13.5h3.3c0.9,0,1.5-0.6,1.5-1.4
		c0-0.6-0.3-1.1-1.1-1.3c0.5-0.2,0.8-0.6,0.8-1c0-0.6-0.4-1.2-1.6-1.2h-2.9V13.5z M93.5,12.8v-1.4H94c0.6,0,0.8,0.3,0.8,0.7
		c0,0.5-0.3,0.7-0.9,0.7H93.5z"/>
	<polyline fill="#FDFDFE" points="99.4,8.5 101.2,8.5 101.2,12.3 103.2,12.3 103.2,13.5 99.4,13.5 99.4,8.5 	"/>
	<rect x="105.7" y="8.5" fill="#FDFDFE" width="1.8" height="5"/>
	<path fill="#FDFDFE" d="M115,13.2c-0.5,0.3-1.2,0.4-1.9,0.4c-2.1,0-2.8-1.4-2.8-2.5c0-1.5,1.1-2.6,2.9-2.6c0.7,0,1.2,0.1,1.7,0.3
		v1.5c-0.5-0.3-0.9-0.5-1.4-0.5c-0.9,0-1.4,0.5-1.4,1.2c0,0.7,0.6,1.2,1.4,1.2c0.5,0,0.9-0.1,1.5-0.4V13.2"/>
	<polyline fill="#FDFDFE" points="63.4,3.1 63.4,1.9 68.2,1.9 68.2,3.1 66.7,3.1 66.7,6.9 64.9,6.9 64.9,3.1 63.4,3.1 	"/>
	<path fill="#FDFDFE" d="M70.5,4.4c0,1.4,0.9,2.6,2.7,2.6c1.9,0,2.7-1.3,2.7-2.6c0-1.3-0.8-2.6-2.7-2.6C71.3,1.8,70.5,3,70.5,4.4
		 M72.2,4.4c0-0.7,0.4-1.1,1-1.1c0.6,0,1,0.4,1,1.1c0,0.7-0.4,1.1-1,1.1C72.6,5.5,72.2,5,72.2,4.4z"/>
	<path fill="#FDFDFE" d="M78.8,6.9h1.8V4.8H81c0.5,0,0.8,0.5,1.1,1.3l0.3,0.7h1.7l-0.6-1.3c-0.3-0.6-0.5-0.9-0.8-1.1
		c0.5-0.2,0.8-0.6,0.8-1.2c0-0.8-0.6-1.4-1.9-1.4h-2.8V6.9 M80.5,4V2.7H81c0.5,0,0.9,0.2,0.9,0.7C81.9,3.8,81.6,4,81,4H80.5z"/>
	<path fill="#FDFDFE" d="M86.4,4.4c0,1.4,0.9,2.6,2.7,2.6c1.9,0,2.7-1.3,2.7-2.6c0-1.3-0.8-2.6-2.7-2.6C87.2,1.8,86.4,3,86.4,4.4
		 M88.1,4.4c0-0.7,0.4-1.1,1-1.1c0.6,0,1,0.4,1,1.1c0,0.7-0.4,1.1-1,1.1C88.5,5.5,88.1,5,88.1,4.4z"/>
	<polyline fill="#FDFDFE" points="94.7,1.9 96.2,1.9 98.7,4.4 98.6,1.9 100.4,1.9 100.4,6.9 98.9,6.9 96.3,4.3 96.4,6.9 94.7,6.9 
		94.7,1.9 	"/>
	<polyline fill="#FDFDFE" points="103.1,3.1 103.1,1.9 108,1.9 108,3.1 106.4,3.1 106.4,6.9 104.7,6.9 104.7,3.1 103.1,3.1 	"/>
	<path fill="#FDFDFE" d="M110.2,4.4c0,1.4,0.9,2.6,2.7,2.6c1.9,0,2.7-1.3,2.7-2.6c0-1.3-0.8-2.6-2.7-2.6
		C111.1,1.8,110.2,3,110.2,4.4 M112,4.4c0-0.7,0.4-1.1,1-1.1c0.6,0,1,0.4,1,1.1c0,0.7-0.4,1.1-1,1.1C112.3,5.5,112,5,112,4.4z"/>
	<path fill="#FDFDFE" d="M46,5.5C18.7-10.3,0.1,13,0.1,13l16.6,0.1c9-8.9,17.5-8.8,23.7-6.4c0.5-0.1,1-0.3,1.5-0.4
		C43.1,6,44.5,5.7,46,5.5"/>
	<path fill="#FDFDFE" d="M50.3,13.4h6.3c-1.5-1.4-3-2.6-4.4-3.7c-1.5,0.2-2.9,0.7-4.4,1.4C49.4,12.4,50.3,13.4,50.3,13.4"/>
	<path fill="#FDFDFE" d="M29.7,13.2c0,0,18.4-15.9,44,0.2h-4.9c0,0-14.2-11.1-26.2-0.2L29.7,13.2"/>
</g>
</svg>
