<?xml version="1.0" standalone="no"?>
<!DOCTYPE svg PUBLIC "-//W3C//DTD SVG 1.1//EN" "http://www.w3.org/Graphics/SVG/1.1/DTD/svg11.dtd" >
<svg xmlns="http://www.w3.org/2000/svg">
<metadata>Generated by IcoMoon</metadata>
<defs>
<font id="TPL-Icon-Set" horiz-adv-x="512">
<font-face units-per-em="512" ascent="480" descent="-32" />
<missing-glyph horiz-adv-x="512" />
<glyph unicode="&#x20;" d="" horiz-adv-x="256" />
<glyph unicode="&#xe600;" d="M512 288l-96 96-160-160-160 160-96-96 256-255.999 256 255.999z" />
<glyph unicode="&#xe601;" d="M320-32l96 96-160 160 160 160-96 96-256-256 256-256z" />
<glyph unicode="&#xe602;" d="M192 480l-96-96 160-160-160-160 96-96 256 256-256 256z" />
<glyph unicode="&#xe603;" d="M432 416l-240-240-112 112-80-80 192-192 320 320-80 80z" />
<glyph unicode="&#xe604;" d="M0 0c0-17.674 14.327-32 32-32h448c17.674 0 32 14.326 32 32v288h-512v-288zM352 256h128v-64h-128v64zM352 160h128v-64h-128v64zM352 64h128v-64h-128v64zM192 256h128v-64h-128v64zM192 160h128v-64h-128v64zM192 64h128v-64h-128v64zM32 256h128v-64h-128v64zM32 160h128v-64h-128v64zM32 64h128v-64h-128v64zM480 416h-64v45.714c0 10.099-7.163 18.286-16 18.286-8.836 0-16-8.187-16-18.286v-45.714h-256v45.714c0 10.099-7.163 18.286-16 18.286s-16-8.187-16-18.286v-45.714h-64c-17.673 0-32-14.327-32-32v-64h512v64c0 17.673-14.327 32-32 32zM112 336c-17.673 0-32 14.327-32 32 0 11.842 6.438 22.174 16 27.708v-27.708c0-8.836 7.164-16 16-16s16 7.164 16 16v27.708c9.562-5.534 16-15.866 16-27.708 0-17.673-14.327-32-32-32zM400 336c-17.672 0-32 14.327-32 32 0 11.842 6.438 22.174 16 27.708v-27.708c0-8.836 7.164-16 16-16 8.837 0 16 7.164 16 16v27.708c9.562-5.534 16-15.866 16-27.708 0-17.673-14.326-32-32-32z" />
<glyph unicode="&#xe605;" d="M507.331 68.67c-0.002 0.002-0.004 0.004-0.006 0.005l-155.322 155.325 155.322 155.325c0.002 0.002 0.004 0.003 0.006 0.005 1.672 1.673 2.881 3.627 3.656 5.708 2.123 5.688 0.912 12.341-3.662 16.915l-73.373 73.373c-4.574 4.573-11.226 5.783-16.914 3.66-2.080-0.775-4.035-1.984-5.709-3.655 0-0.002-0.002-0.003-0.004-0.005l-155.324-155.326-155.324 155.325c-0.002 0.002-0.003 0.003-0.005 0.005-1.673 1.671-3.627 2.88-5.707 3.655-5.69 2.124-12.341 0.913-16.915-3.66l-73.374-73.374c-4.574-4.574-5.784-11.226-3.661-16.914 0.776-2.080 1.985-4.036 3.656-5.708 0.002-0.001 0.003-0.003 0.005-0.005l155.325-155.324-155.325-155.326c-0.001-0.002-0.003-0.003-0.004-0.005-1.671-1.673-2.88-3.627-3.657-5.707-2.124-5.688-0.913-12.341 3.661-16.915l73.374-73.373c4.575-4.574 11.226-5.784 16.915-3.661 2.080 0.776 4.035 1.985 5.708 3.656 0.001 0.002 0.003 0.003 0.005 0.005l155.324 155.325 155.324-155.325c0.002-0.001 0.004-0.003 0.006-0.004 1.674-1.672 3.627-2.881 5.707-3.657 5.689-2.123 12.342-0.913 16.914 3.661l73.373 73.374c4.574 4.574 5.785 11.228 3.662 16.915-0.776 2.080-1.985 4.034-3.657 5.707z" />
<glyph unicode="&#xe606;" d="M480 416h-448c-17.6 0-32-14.4-32-32v-320c0-17.6 14.4-32 32-32h448c17.6 0 32 14.4 32 32v320c0 17.6-14.4 32-32 32zM448 352v-23l-192-113.143-192 113.143v23h384zM64 96v177.286l192-113.144 192 113.144v-177.286h-384z" />
<glyph unicode="&#xe607;" d="M287.936-32h-95.936v256h-64v88.225l64 0.029-0.104 51.976c0 71.976 19.517 115.77 104.299 115.77h70.588v-88.242h-44.115c-33.016 0-34.604-12.328-34.604-35.342l-0.131-44.162h79.346l-9.352-88.225-69.927-0.029-0.064-256z" />
<glyph unicode="&#xe608;" d="M416 416h-320c-52.8 0-96-43.2-96-96v-192c0-52.8 43.2-96 96-96h320c52.8 0 96 43.2 96 96v192c0 52.8-43.2 96-96 96zM192 96v256l160-128-160-128z" />
<glyph unicode="&#xe609;" d="M504.979 22.12l-218.538 435.556c-8.371 14.883-19.406 22.324-30.441 22.324s-22.070-7.441-30.442-22.324l-218.537-435.556c-16.743-29.766-2.5-54.12 31.652-54.12h434.654c34.152 0 48.396 24.354 31.652 54.12zM288 33h-64v64h64v-64zM288 150h-64v163.5h64v-163.5z" />
<glyph unicode="&#xe60a;" d="M311.413 128.632c-11.056 1.759-11.308 32.157-11.308 32.157s32.484 32.158 39.564 75.401c19.045 0 30.809 45.973 11.762 62.148 0.796 17.027 24.48 133.662-95.431 133.662s-96.225-116.635-95.432-133.662c-19.047-16.175-7.285-62.148 11.761-62.148 7.079-43.243 39.564-75.401 39.564-75.401s-0.252-30.398-11.307-32.157c-35.61-5.666-168.586-64.317-168.586-128.632h448c0 64.315-132.977 122.966-168.587 128.632z" />
<glyph unicode="&#xe60b;" d="M512 382.791c-18.838-8.354-39.082-14.001-60.33-16.54 21.686 13 38.343 33.585 46.186 58.115-20.298-12.039-42.777-20.78-66.704-25.49-19.16 20.415-46.462 33.17-76.673 33.17-58.012 0-105.044-47.029-105.044-105.039 0-8.233 0.929-16.25 2.72-23.939-87.3 4.382-164.701 46.2-216.509 109.753-9.042-15.514-14.223-33.558-14.223-52.809 0-36.444 18.544-68.596 46.73-87.433-17.219 0.546-33.416 5.271-47.577 13.139-0.010-0.438-0.010-0.878-0.010-1.321 0-50.894 36.209-93.348 84.261-103-8.813-2.399-18.094-3.686-27.674-3.686-6.769 0-13.349 0.66-19.764 1.887 13.368-41.73 52.16-72.104 98.126-72.948-35.95-28.176-81.243-44.968-130.458-44.968-8.479 0-16.84 0.497-25.058 1.471 46.486-29.806 101.701-47.197 161.021-47.197 193.211 0 298.868 160.062 298.868 298.872 0 4.554-0.103 9.084-0.305 13.59 20.527 14.809 38.335 33.309 52.417 54.373z" />
<glyph unicode="&#xe60c;" d="M496.131 44.302l-121.276 103.147c-12.537 11.283-25.945 16.463-36.776 15.963 28.628 33.534 45.921 77.039 45.921 124.588 0 106.039-85.961 192-192 192-106.038 0-192-85.961-192-192s85.961-192 192-192c47.549 0 91.055 17.293 124.588 45.922-0.5-10.831 4.68-24.239 15.963-36.775l103.147-121.277c17.661-19.623 46.511-21.277 64.109-3.678 17.6 17.599 15.947 46.449-3.676 64.11zM192 160c-70.692 0-128 57.309-128 128 0 70.692 57.308 128 128 128 70.691 0 128-57.308 128-128 0-70.691-57.307-128-128-128z" />
<glyph unicode="&#xe60d;" d="M256 480c-141.385 0-256-114.615-256-256s114.613-256 256-256c141.385 0 256 114.615 256 256s-114.615 256-256 256zM280.789 67.175h-55.744v61.743h55.744v-61.743zM358.969 261.413c-7.69-12.16-24.136-28.712-49.328-49.658-13.040-10.842-21.132-19.556-24.28-26.147-3.151-6.592-4.58-18.385-4.284-35.376h-56.031c-0.147 8.055-0.22 12.964-0.22 14.722 0 18.162 3 33.104 9.009 44.824 6.005 11.718 18.018 24.901 36.035 39.551 18.018 14.646 28.785 24.242 32.301 28.784 5.417 7.176 8.129 15.086 8.129 23.73 0 12.010-4.799 22.303-14.392 30.871-9.596 8.57-22.522 12.854-38.782 12.854-15.676 0-28.784-4.47-39.331-13.403-10.547-8.937-17.798-22.56-21.753-40.869l-56.689 7.031c1.61 26.22 12.778 48.484 33.508 66.797 20.727 18.31 47.935 27.466 81.628 27.466 35.449 0 63.645-9.267 84.595-27.796 20.945-18.532 31.42-40.1 31.42-64.709 0-13.623-3.845-26.515-11.535-38.672z" />
<glyph unicode="&#xe60e;" d="M256 480c-141.385 0-256-114.615-256-256s114.613-256 256-256c141.385 0 256 114.615 256 256s-114.615 256-256 256zM280.822 137.941c-23.26 1.807-33.021 13.326-51.252 24.402-10.030-52.588-22.282-103.008-58.57-129.343-11.202 79.484 16.447 139.182 29.285 202.557-21.892 36.853 2.635 111.017 48.81 92.737 56.813-22.474-49.2-137.004 21.965-151.309 74.311-14.935 104.645 128.93 58.57 175.713-66.579 67.553-193.799 1.54-178.155-95.178 3.807-23.646 28.236-30.819 9.762-63.451-42.61 9.445-55.325 43.051-53.688 87.855 2.634 73.337 65.892 124.682 129.343 131.783 80.243 8.982 155.552-29.454 165.953-104.938 11.708-85.192-36.222-177.462-122.023-170.828z" />
<glyph unicode="&#xe60f;" d="M256 480c-141.385 0-256-114.615-256-256s114.615-256 256-256 256 114.615 256 256-114.615 256-256 256zM288 64h-64v64h64v-64zM288 192h-64v192h64v-192z" />
<glyph unicode="&#xe610;" d="M302.050-6.25h-92.1v92.1h92.1v-92.1zM302.050 177.95h-92.1v276.3h92.1v-276.3z" />
<glyph unicode="&#xe611;" d="M48 395.5h417v-77h-417v77zM48 263h417v-77.5h-417v77.5zM48 129.5h417v-77h-417v77z" />
<glyph unicode="&#xe612;" d="M256 480c-141.385 0-256-114.615-256-256s114.615-256 256-256 256 114.615 256 256-114.615 256-256 256zM288 64h-64v192h64v-192zM288 320h-64v64h64v-64z" />
<glyph unicode="&#xe613;" d="M394.768 448c0 0-100.479 0-133.971 0-60.061 0-116.585-45.503-116.585-98.211 0-53.863 40.941-97.333 102.044-97.333 4.249 0 8.378 0.085 12.42 0.376-3.964-7.593-6.8-16.144-6.8-25.021 0-14.969 8.052-27.105 18.233-37.012-7.692 0-15.12-0.224-23.226-0.224-74.391 0.001-131.65-47.38-131.65-96.511 0-48.39 62.771-78.656 137.167-78.656 84.812 0 131.654 48.122 131.654 96.514 0 38.801-11.449 62.036-46.844 87.067-12.107 8.571-35.266 29.418-35.266 41.672 0 14.36 4.098 21.434 25.714 38.323 22.155 17.312 37.837 41.651 37.837 69.958 0 33.703-15.012 66.549-43.188 77.386h42.479l29.982 21.672zM347.975 120.271c1.062-4.486 1.642-9.104 1.642-13.814 0-39.1-25.195-69.655-97.487-69.655-51.421 0-88.558 32.552-88.558 71.65 0 38.321 46.063 70.222 97.482 69.666 12-0.127 23.184-2.058 33.334-5.345 27.913-19.414 47.937-30.38 53.587-52.502zM265.643 266.112c-34.519 1.032-67.317 38.613-73.275 83.93-5.958 45.333 17.185 80.021 51.694 78.995 34.502-1.037 67.317-37.407 73.278-82.729 5.953-45.33-17.195-81.229-51.697-80.196z" />
<glyph unicode="&#xe614;" d="M400 272c-35.29 0-64-28.71-64-64s28.71-64 64-64 64 28.71 64 64-28.71 64-64 64zM400 320v0c61.855 0 112-50.144 112-112 0-61.855-50.145-112-112-112s-112 50.145-112 112c0 61.856 50.145 112 112 112zM0 208c0-61.855 50.144-112 112-112s112 50.145 112 112c0 61.856-50.144 112-112 112s-112-50.144-112-112z" />
<glyph unicode="&#xe615;" d="M68.147 104.535c-37.598 0-68.146-30.667-68.146-68.038 0-37.577 30.55-67.901 68.146-67.901 37.733 0 68.247 30.324 68.247 67.901-0.001 37.371-30.512 68.038-68.247 68.038zM0.078 306.035v-98.129c63.892 0 123.979-24.986 169.229-70.256 45.192-45.159 70.141-105.519 70.141-169.65h98.561c-0.001 186.41-151.641 338.035-337.931 338.035zM0.194 480v-98.178c227.891 0 413.378-185.667 413.378-413.822h98.428c0 282.235-229.627 512-511.806 512z" />
</font>
</defs>
</svg>
