<?xml version="1.0" encoding="utf-8"?>
<!-- Generator: Adobe Illustrator 18.0.0, SVG Export Plug-In . SVG Version: 6.00 Build 0)  -->
<!DOCTYPE svg PUBLIC "-//W3C//DTD SVG 1.1//EN" "http://www.w3.org/Graphics/SVG/1.1/DTD/svg11.dtd">
<svg version="1.1" id="Layer_1" xmlns="http://www.w3.org/2000/svg" xmlns:xlink="http://www.w3.org/1999/xlink" x="0px" y="0px"
	 viewBox="0 0 612 792" enable-background="new 0 0 612 792" xml:space="preserve">
<path fill="#FFFFFF" d="M0,663.8c0,21,17.2,38.2,38.2,38.2h535.5c21,0,38.2-17.2,38.2-38.2V319.5H0V663.8z M420.8,357.8h153v76.5
	h-153V357.8z M420.8,472.5h153V549h-153V472.5z M420.8,587.2h153v76.5h-153V587.2z M229.5,357.8h153v76.5h-153V357.8z M229.5,472.5
	h153V549h-153V472.5z M229.5,587.2h153v76.5h-153V587.2z M38.2,357.8h153v76.5h-153V357.8z M38.2,472.5h153V549h-153V472.5z
	 M38.2,587.2h153v76.5h-153V587.2z M573.8,166.5h-76.5V111c0-11.5-7.6-21-19.1-21S459,99.6,459,111v55.5H153V111
	c0-11.5-7.7-21-19.1-21s-19.1,9.6-19.1,21v55.5H38.2c-21,0-38.2,17.2-38.2,38.2v76.5h612v-76.5C612,183.7,594.8,166.5,573.8,166.5z
	 M133.9,262.1c-21,0-38.2-17.2-38.2-38.2c0-13.4,7.7-26.8,19.1-32.5v32.5c0,11.5,7.7,19.1,19.1,19.1s19.1-7.7,19.1-19.1v-32.5
	c11.5,5.7,19.1,19.1,19.1,32.5C172.1,244.9,154.9,262.1,133.9,262.1z M478.1,262.1c-21,0-38.2-17.2-38.2-38.2
	c0-13.4,7.6-26.8,19.1-32.5v32.5c0,11.5,7.6,19.1,19.1,19.1s19.1-7.7,19.1-19.1v-32.5c11.5,5.7,19.1,19.1,19.1,32.5
	C516.4,244.9,499.2,262.1,478.1,262.1z"/>
</svg>
